#N canvas 0 90 797 748 10;
#X declare -lib mrpeach;
#X obj 153 254 import mrpeach;
#X obj 272 645 packOSC;
#X obj 258 750 udpsend;
#X msg 598 759 disconnect;
#X obj 222 367 hsl 128 15 10 150 0 0 empty empty empty -2 -8 0 10 -262144
-1 -1 0 1;
#X msg 245 479 /x \$1;
#X obj 458 160 vsl 15 128 0 255 0 0 empty empty empty 0 -9 0 10 -262144
-1 -1 12700 1;
#X msg 461 365 /r \$1;
#X obj 533 166 vsl 15 128 0 255 0 0 empty empty empty 0 -9 0 10 -262144
-1 -1 7300 1;
#X obj 601 162 vsl 15 128 0 255 0 0 empty empty empty 0 -9 0 10 -262144
-1 -1 0 1;
#X msg 530 366 /g \$1;
#X msg 604 365 /b \$1;
#X msg 704 426 bang;
#X msg 737 535 /dividir \$1;
#X msg 701 600 /normalidad \$1;
#X msg 595 671 connect 192.168.1.64 12000;
#X connect 1 0 2 0;
#X connect 3 0 2 0;
#X connect 4 0 5 0;
#X connect 5 0 1 0;
#X connect 6 0 7 0;
#X connect 7 0 1 0;
#X connect 8 0 10 0;
#X connect 9 0 11 0;
#X connect 10 0 1 0;
#X connect 11 0 1 0;
#X connect 12 0 13 0;
#X connect 12 0 14 0;
#X connect 13 0 1 0;
#X connect 14 0 1 0;
#X connect 15 0 2 0;
